<svg xmlns="http://www.w3.org/2000/svg" viewBox="0 0 32 32"><defs><style>.cls-1{fill:#30acc2;}.cls-2{fill:#a1d8df;}.cls-3{fill:#68c7d3;}.cls-4{fill:#d1e6e9;}</style></defs><title>Nurse</title><g id="Nurse"><rect class="cls-1" x="6" y="11" width="14" height="9"/><path class="cls-2" d="M1.75,26.89A8.38,8.38,0,0,1,10,20h6a8.38,8.38,0,0,1,8.25,6.89L25,31H1Z"/><polygon class="cls-3" points="16 20 17 23 15 23 13 27 11 23 9 23 10 20 16 20"/><polygon class="cls-4" points="15 18 15 20 14.61 20.77 13 24 11.39 20.77 11 20 11 18 15 18"/><path class="cls-4" d="M7,10H7a2,2,0,0,0-2,2H5a2,2,0,0,0,2,2H19a2,2,0,0,0,2-2h0a2,2,0,0,0-2-2H7Z"/><path class="cls-4" d="M7,8H19a0,0,0,0,1,0,0v5a6,6,0,0,1-6,6h0a6,6,0,0,1-6-6V8A0,0,0,0,1,7,8Z"/><path class="cls-1" d="M9,5h4a0,0,0,0,1,0,0V5a6,6,0,0,1-6,6H6a0,0,0,0,1,0,0V8A3,3,0,0,1,9,5Z"/><path class="cls-1" d="M11,5h3a6,6,0,0,1,6,6v0a0,0,0,0,1,0,0H14a3,3,0,0,1-3-3V5A0,0,0,0,1,11,5Z" transform="translate(31 16) rotate(180)"/><path class="cls-2" d="M13,1C8.58,1,5,2.34,5,4L7,9H19l2-5C21,2.34,17.42,1,13,1Z"/><rect class="cls-1" x="12" y="2" width="2" height="6"/><rect class="cls-1" x="12" y="2" width="2" height="6" transform="translate(18 -8) rotate(90)"/><rect class="cls-4" x="5" y="26" width="5" height="2"/><path class="cls-1" d="M31.25,23.72a2.83,2.83,0,0,1-.83,2l-2.67,2.67-1.67,1.67a2.83,2.83,0,1,1-4-4l1.67-1.67,2.67-2.67a2.83,2.83,0,0,1,4.83,2Z"/><path class="cls-3" d="M31.25,23.72a2.83,2.83,0,0,1-.83,2l-2.17,2.17-4-4,2.17-2.17a2.83,2.83,0,0,1,4.83,2Z"/></g></svg>